# xmcd
#
# Track frame offsets:
#	151
#	14351
#	30976
#	49097
#	61938
#	81096
#	96085
#	113949
#	126630
#	141657
#	153160
#	175905
#	196699
#	211664
#	231395
#	249781
#	263352
#	282609
#	295995
#
# Disc length: 4153 seconds
#
# Revision: 0
# Processed by: cddbd v1.4PL0 Copyright (c) Steve Scherf et al.
# Submitted via: dBpowerAMP V4.0
#
DISCID=0b103713
DTITLE=Alan Westward - My Songs
DYEAR=2001
DGENRE=Country
TTITLE0=Last Cowboy
TTITLE1=Open For Business Tonight
TTITLE2=Lady Dressed in Black
TTITLE3=18 Wheeler
TTITLE4=Montezumas Castle
TTITLE5=The South Will Rise Again
TTITLE6=Close The Door as You Leave
TTITLE7=Across the Rio Grande
TTITLE8=California One
TTITLE9=Georgia Pines
TTITLE10=Glory Glory
TTITLE11=Arizona Flame
TTITLE12=Cowboys And Little Boys
TTITLE13=Mississippi River Bend
TTITLE14=Sweet Perfune
TTITLE15=Dixie Girls
TTITLE16=Old Timer
TTITLE17=Texas
TTITLE18=Boys in Blue
EXTD=
EXTT0=
EXTT1=
EXTT2=
EXTT3=
EXTT4=
EXTT5=
EXTT6=
EXTT7=
EXTT8=
EXTT9=
EXTT10=
EXTT11=
EXTT12=
EXTT13=
EXTT14=
EXTT15=
EXTT16=
EXTT17=
EXTT18=
PLAYORDER=
